<svg version="1.0" xmlns="http://www.w3.org/2000/svg"
     width="40" height="40" viewBox="0 0 40.000000 40.000000"
     preserveAspectRatio="xMidYMid meet">

    <g transform="translate(-4.000000,44.000000) scale(0.100000,-0.100000)"
       fill="#7758B5" stroke="none">
        <path d="M130 269 c-73 -119 -91 -155 -83 -168 9 -14 36 -16 193 -16 157 0
184 2 193 16 8 13 -10 49 -83 168 -61 100 -99 151 -110 151 -11 0 -49 -51
-110 -151z m189 -26 l71 -118 -146 -3 c-81 -1 -149 -1 -151 1 -5 6 138 237
147 237 4 0 40 -53 79 -117z"/>
    </g>
</svg>
